<?xml version="1.0" standalone="no"?>
<!DOCTYPE svg PUBLIC "-//W3C//DTD SVG 20010904//EN"
 "http://www.w3.org/TR/2001/REC-SVG-20010904/DTD/svg10.dtd">
<svg version="1.0" xmlns="http://www.w3.org/2000/svg"
 width="308.000000pt" height="308.000000pt" viewBox="0 0 308.000000 308.000000"
 preserveAspectRatio="xMidYMid meet">
<metadata>
Created by potrace 1.11, written by Peter Selinger 2001-2013
</metadata>
<g transform="translate(0.000000,308.000000) scale(0.100000,-0.100000)"
fill="#000000" stroke="none">
<path d="M1457 3074 c-1 -1 -37 -4 -79 -8 -43 -4 -83 -8 -90 -11 -7 -2 -29 -6
-48 -9 -19 -3 -67 -15 -107 -26 -592 -165 -1035 -681 -1110 -1291 -14 -117 -8
-369 12 -459 3 -14 10 -46 15 -72 9 -46 51 -182 69 -223 167 -384 421 -653
772 -819 255 -121 520 -167 804 -141 44 4 82 8 85 10 3 2 26 6 52 9 107 14
308 85 428 149 416 225 692 593 791 1058 30 140 33 450 5 574 -9 44 -20 91
-22 104 -11 54 -64 201 -99 276 -122 257 -313 477 -549 630 -45 29 -118 72
-163 94 -76 38 -253 103 -313 115 -14 2 -45 9 -70 14 -65 15 -171 25 -283 27
-53 1 -98 0 -100 -1z"/>
</g>
</svg>
