<?xml version="1.0" standalone="no"?>
<!DOCTYPE svg PUBLIC "-//W3C//DTD SVG 20010904//EN"
 "http://www.w3.org/TR/2001/REC-SVG-20010904/DTD/svg10.dtd">
<svg version="1.0" xmlns="http://www.w3.org/2000/svg"
 width="258.000000pt" height="258.000000pt" viewBox="0 0 258.000000 258.000000"
 preserveAspectRatio="xMidYMid meet">
<metadata>
Created by potrace 1.11, written by Peter Selinger 2001-2013
</metadata>
<g transform="translate(0.000000,258.000000) scale(0.100000,-0.100000)"
fill="#000000" stroke="none">
<path d="M1348 2315 c-2 -2 -44 -5 -93 -6 -324 -8 -649 -205 -815 -495 -143
-249 -178 -507 -108 -779 12 -44 24 -84 28 -90 4 -5 10 -22 13 -36 18 -73 126
-235 223 -334 353 -359 932 -400 1339 -95 49 37 194 190 228 242 77 117 132
248 153 363 3 17 10 50 14 75 9 45 6 267 -3 305 -3 11 -10 41 -16 67 -40 175
-142 357 -272 487 -154 154 -398 271 -594 287 -38 3 -75 7 -82 9 -6 2 -13 2
-15 0z"/>
</g>
</svg>
